<?xml version="1.0" encoding="UTF-8" standalone="no"?>
<svg
   xmlns:dc="http://purl.org/dc/elements/1.1/"
   xmlns:cc="http://creativecommons.org/ns#"
   xmlns:rdf="http://www.w3.org/1999/02/22-rdf-syntax-ns#"
   xmlns:svg="http://www.w3.org/2000/svg"
   xmlns="http://www.w3.org/2000/svg"
   xmlns:sodipodi="http://sodipodi.sourceforge.net/DTD/sodipodi-0.dtd"
   xmlns:inkscape="http://www.inkscape.org/namespaces/inkscape"
   version="1.1"
   id="Capa_1"
   x="0px"
   y="0px"
   width="22"
   height="22"
   viewBox="0 0 22.000002 22.000002"
   xml:space="preserve"
   sodipodi:docname="trayIcon2.svg"
   inkscape:export-filename="/Users/klassm/Downloads/icon_16.png"
   inkscape:export-xdpi="1.5"
   inkscape:export-ydpi="1.5"
   inkscape:version="1.0.1 (c497b03c, 2020-09-10)"><metadata
   id="metadata876"><rdf:RDF><cc:Work
       rdf:about=""><dc:format>image/svg+xml</dc:format><dc:type
         rdf:resource="http://purl.org/dc/dcmitype/StillImage" /><dc:title></dc:title></cc:Work></rdf:RDF></metadata><defs
   id="defs874" /><sodipodi:namedview
   pagecolor="#ffffff"
   bordercolor="#666666"
   borderopacity="1"
   objecttolerance="10"
   gridtolerance="10"
   guidetolerance="10"
   inkscape:pageopacity="0"
   inkscape:pageshadow="2"
   inkscape:window-width="2560"
   inkscape:window-height="1387"
   id="namedview872"
   showgrid="false"
   inkscape:zoom="1.1756216"
   inkscape:cx="414.08774"
   inkscape:cy="311.70692"
   inkscape:window-x="2560"
   inkscape:window-y="25"
   inkscape:window-maximized="0"
   inkscape:current-layer="Capa_1" />
<g
   id="g839"
   transform="matrix(0.05917466,0,0,0.05662654,2.6399816,3.0000006)">
	<g
   id="g837">
		<path
   d="m 26.883,225.411 c -11.486,0 -20.799,9.313 -20.799,20.8 v 0.787 c 0,11.486 9.313,20.8 20.799,20.8 h 7.8 v 4.356 c 0,5.743 4.659,10.399 10.399,10.399 h 26 c 5.741,0 10.4,-4.656 10.4,-10.399 v -4.356 h 102.696 v 3.479 c 0,5.737 4.662,10.399 10.4,10.399 h 25.999 c 5.738,0 10.399,-4.662 10.399,-10.399 v -3.479 h 2.601 c 11.486,0 20.799,-9.313 20.799,-20.8 v -0.787 c 0,-11.486 -9.312,-20.8 -20.799,-20.8 H 222.11 l 20.982,-113.609 h 17.778 c 8.617,0 15.6,-6.984 15.6,-15.599 0,-8.618 -6.982,-15.6 -15.6,-15.6 h -55.898 c -8.617,0 -15.6,6.982 -15.6,15.6 0,8.615 6.982,15.599 15.6,15.599 h 11.674 l -20.981,113.609 h -50.628 l 6.49,-38.206 c 0.411,-2.407 -0.041,-4.885 -1.28,-6.997 l -19.461,-33.251 c 1.663,-3.544 2.688,-7.503 2.688,-11.761 v -25.844 l 17.443,9.78 c 1.584,0.887 3.341,1.328 5.093,1.328 1.904,0 3.804,-0.521 5.474,-1.557 l 18.2,-11.268 c 4.89,-3.021 6.393,-9.433 3.366,-14.315 -3.027,-4.882 -9.435,-6.385 -14.31,-3.369 L 155.751,97.99 133.479,85.501 V 84.93 c 0,-14.358 -10.671,-26 -23.831,-26 -12.06,0 -21.919,9.8 -23.509,22.473 L 58.247,96.832 c -4.128,2.28 -6.203,7.061 -5.048,11.637 l 7.15,28.396 c 1.183,4.718 5.423,7.863 10.078,7.863 0.84,0 1.693,-0.099 2.546,-0.317 5.568,-1.404 8.95,-7.051 7.546,-12.626 l -5.195,-20.632 10.494,-5.805 v 29.844 c 0,4.407 1.097,8.49 2.874,12.131 L 67.913,176.654 31.816,157.235 c -5.065,-2.722 -11.367,-0.832 -14.086,4.23 -2.719,5.062 -0.827,11.369 4.233,14.086 l 44.199,23.78 c 1.562,0.843 3.25,1.239 4.92,1.239 3.275,0 6.482,-1.544 8.49,-4.388 l 25.182,-35.551 c 1.582,0.36 3.219,0.563 4.9,0.563 1.727,0 3.4,-0.224 5.022,-0.604 l 15.714,26.857 -6.441,37.958 H 26.883 Z"
   id="path833" />
		<circle
   cx="109.649"
   cy="27.736"
   r="27.736"
   id="circle835" />
	</g>
</g>
<g
   id="g841"
   transform="matrix(0.1025641,0,0,0.0186945,73.400055,75.124085)">
</g>
<g
   id="g843"
   transform="matrix(0.1025641,0,0,0.0186945,73.400055,75.124085)">
</g>
<g
   id="g845"
   transform="matrix(0.1025641,0,0,0.0186945,73.400055,75.124085)">
</g>
<g
   id="g847"
   transform="matrix(0.1025641,0,0,0.0186945,73.400055,75.124085)">
</g>
<g
   id="g849"
   transform="matrix(0.1025641,0,0,0.0186945,73.400055,75.124085)">
</g>
<g
   id="g851"
   transform="matrix(0.1025641,0,0,0.0186945,73.400055,75.124085)">
</g>
<g
   id="g853"
   transform="matrix(0.1025641,0,0,0.0186945,73.400055,75.124085)">
</g>
<g
   id="g855"
   transform="matrix(0.1025641,0,0,0.0186945,73.400055,75.124085)">
</g>
<g
   id="g857"
   transform="matrix(0.1025641,0,0,0.0186945,73.400055,75.124085)">
</g>
<g
   id="g859"
   transform="matrix(0.1025641,0,0,0.0186945,73.400055,75.124085)">
</g>
<g
   id="g861"
   transform="matrix(0.1025641,0,0,0.0186945,73.400055,75.124085)">
</g>
<g
   id="g863"
   transform="matrix(0.1025641,0,0,0.0186945,73.400055,75.124085)">
</g>
<g
   id="g865"
   transform="matrix(0.1025641,0,0,0.0186945,73.400055,75.124085)">
</g>
<g
   id="g867"
   transform="matrix(0.1025641,0,0,0.0186945,73.400055,75.124085)">
</g>
<g
   id="g869"
   transform="matrix(0.1025641,0,0,0.0186945,73.400055,75.124085)">
</g>
</svg>
