<?xml version="1.0" encoding="UTF-8" standalone="no"?>
<svg
   xmlns:dc="http://purl.org/dc/elements/1.1/"
   xmlns:cc="http://creativecommons.org/ns#"
   xmlns:rdf="http://www.w3.org/1999/02/22-rdf-syntax-ns#"
   xmlns:svg="http://www.w3.org/2000/svg"
   xmlns="http://www.w3.org/2000/svg"
   xmlns:sodipodi="http://sodipodi.sourceforge.net/DTD/sodipodi-0.dtd"
   xmlns:inkscape="http://www.inkscape.org/namespaces/inkscape"
   width="22"
   height="22"
   viewBox="0 0 5.8208334 5.8208334"
   version="1.1"
   id="svg8"
   inkscape:version="1.0.1 (c497b03c, 2020-09-10)"
   sodipodi:docname="icon.svg">
  <defs
     id="defs2" />
  <sodipodi:namedview
     id="base"
     pagecolor="#ffffff"
     bordercolor="#666666"
     borderopacity="1.0"
     inkscape:pageopacity="0.0"
     inkscape:pageshadow="2"
     inkscape:zoom="8.4822871"
     inkscape:cx="-6.9125084"
     inkscape:cy="15.49037"
     inkscape:document-units="mm"
     inkscape:current-layer="layer1"
     inkscape:document-rotation="0"
     showgrid="false"
     units="px"
     inkscape:window-width="1248"
     inkscape:window-height="943"
     inkscape:window-x="69"
     inkscape:window-y="25"
     inkscape:window-maximized="0" />
  <metadata
     id="metadata5">
    <rdf:RDF>
      <cc:Work
         rdf:about="">
        <dc:format>image/svg+xml</dc:format>
        <dc:type
           rdf:resource="http://purl.org/dc/dcmitype/StillImage" />
        <dc:title></dc:title>
      </cc:Work>
    </rdf:RDF>
  </metadata>
  <g
     inkscape:label="Ebene 1"
     inkscape:groupmode="layer"
     id="layer1">
    <g
       id="g71"
       transform="matrix(0.0639887,0,0,0.04156563,-0.29271873,0.91271029)"
       style="fill:#f2f2f2">
      <g
         id="g14"
         style="fill:#f2f2f2">
	<path
   d="M 67.971,49.778 58.593,39.433 C 58.009,38.789 57.472,37.462 57.445,36.592 L 57.1,25.858 v -0.311 c 0,-1.654 -1.346,-3 -3,-3 h -9.18 -3.648 c -1.478,0 -3.127,1.047 -3.756,2.384 l -12.358,26.25 c -0.342,0.728 -0.376,1.541 -0.096,2.292 0.28,0.75 0.84,1.342 1.575,1.666 l 1.821,0.803 c 0.388,0.171 0.802,0.258 1.231,0.258 v 0 c 1.177,0 2.273,-0.669 2.794,-1.704 l 5.789,-11.517 v 11.576 c -0.024,0.067 -0.059,0.128 -0.081,0.196 l -9.783,30.638 c -0.407,1.276 -0.283,2.619 0.35,3.781 0.633,1.162 1.693,1.994 2.987,2.343 l 0.654,0.177 c 0.428,0.116 0.872,0.175 1.318,0.175 2.251,0 4.296,-1.481 4.974,-3.603 l 9.141,-28.628 3.242,7.941 c 0.791,1.937 1.645,5.329 1.865,7.409 l 1.551,14.621 c 0.249,2.341 2.1,4.04 4.402,4.04 0.377,0 0.76,-0.046 1.137,-0.137 l 0.659,-0.16 c 2.624,-0.635 4.478,-3.331 4.133,-6.008 L 62.524,69.512 C 62.232,67.247 61.255,63.7 60.346,61.605 l -3.102,-7.144 c -0.04,-0.093 -0.097,-0.177 -0.143,-0.267 v -4.841 l 5.59,5.836 c 0.556,0.581 1.3,0.901 2.094,0.901 0.803,0 1.553,-0.326 2.111,-0.918 l 1.034,-1.098 c 1.106,-1.175 1.125,-3.101 0.041,-4.296 z"
   id="path10"
   style="fill:#f2f2f2" />

	<path
   d="m 48.52,20.005 c 5.516,0 10.003,-4.487 10.003,-10.003 C 58.523,4.487 54.036,0 48.52,0 43.005,0 38.519,4.487 38.519,10.002 38.518,15.518 43.005,20.005 48.52,20.005 Z"
   id="path12"
   style="fill:#f2f2f2" />

</g>
      <g
         id="g16"
         style="fill:#f2f2f2">
</g>
      <g
         id="g18"
         style="fill:#f2f2f2">
</g>
      <g
         id="g20"
         style="fill:#f2f2f2">
</g>
      <g
         id="g22"
         style="fill:#f2f2f2">
</g>
      <g
         id="g24"
         style="fill:#f2f2f2">
</g>
      <g
         id="g26"
         style="fill:#f2f2f2">
</g>
      <g
         id="g28"
         style="fill:#f2f2f2">
</g>
      <g
         id="g30"
         style="fill:#f2f2f2">
</g>
      <g
         id="g32"
         style="fill:#f2f2f2">
</g>
      <g
         id="g34"
         style="fill:#f2f2f2">
</g>
      <g
         id="g36"
         style="fill:#f2f2f2">
</g>
      <g
         id="g38"
         style="fill:#f2f2f2">
</g>
      <g
         id="g40"
         style="fill:#f2f2f2">
</g>
      <g
         id="g42"
         style="fill:#f2f2f2">
</g>
      <g
         id="g44"
         style="fill:#f2f2f2">
</g>
    </g>
  </g>
</svg>
